<svg width="128" height="128" viewBox="0 0 128 128" fill="none" xmlns="http://www.w3.org/2000/svg">
<path d="M56 90.6666H21.3333V80H56C59.4066 80.0012 62.748 80.9346 65.662 82.6992C68.5761 84.4637 70.9517 86.9921 72.5315 90.0103C74.1113 93.0285 74.835 96.4215 74.6242 99.8216C74.4134 103.222 73.2762 106.499 71.3357 109.299C69.3953 112.099 66.7256 114.315 63.6159 115.706C60.5062 117.097 57.0752 117.611 53.6945 117.191C50.3137 116.772 47.1123 115.435 44.437 113.326C41.7616 111.217 39.7145 108.416 38.5173 105.227L48.5066 101.477C49.0196 102.844 49.8968 104.045 51.0433 104.949C52.1898 105.853 53.5618 106.426 55.0107 106.606C56.4596 106.786 57.9301 106.566 59.2628 105.97C60.5956 105.373 61.7399 104.424 62.5716 103.224C63.4033 102.024 63.8908 100.619 63.9813 99.1622C64.0717 97.705 63.7616 96.2508 63.0847 94.9573C62.4077 93.6637 61.3897 92.58 60.1408 91.8237C58.892 91.0674 57.46 90.6673 56 90.6666ZM26.6666 58.6666H98.6666C102.073 58.6679 105.415 59.6013 108.329 61.3658C111.243 63.1304 113.618 65.6587 115.198 68.6769C116.778 71.6951 117.502 75.0881 117.291 78.4882C117.08 81.8884 115.943 85.166 114.002 87.966C112.062 90.766 109.392 92.9816 106.283 94.3727C103.173 95.7638 99.7418 96.2774 96.3611 95.8579C92.9804 95.4383 89.7789 94.1016 87.1036 91.9926C84.4283 89.8836 82.3812 87.0827 81.184 83.8933L91.1733 80.144C91.6862 81.5109 92.5635 82.7114 93.71 83.6154C94.8565 84.5194 96.2285 85.0924 97.6774 85.2723C99.1262 85.4523 100.597 85.2323 101.929 84.6362C103.262 84.0401 104.407 83.0906 105.238 81.8907C106.07 80.6908 106.557 79.2861 106.648 77.8289C106.738 76.3717 106.428 74.9175 105.751 73.6239C105.074 72.3304 104.056 71.2467 102.807 70.4904C101.559 69.7341 100.127 69.3339 98.6666 69.3333H26.6666C22.4232 69.3333 18.3535 67.6476 15.3529 64.647C12.3523 61.6464 10.6666 57.5768 10.6666 53.3333C10.6666 49.0898 12.3523 45.0202 15.3529 42.0196C18.3535 39.019 22.4232 37.3333 26.6666 37.3333H72C73.46 37.3327 74.892 36.9326 76.1408 36.1762C77.3897 35.4199 78.4077 34.3363 79.0847 33.0427C79.7616 31.7491 80.0717 30.2949 79.9813 28.8377C79.8908 27.3805 79.4033 25.9759 78.5716 24.7759C77.7399 23.576 76.5956 22.6265 75.2628 22.0304C73.9301 21.4344 72.4596 21.2144 71.0107 21.3943C69.5618 21.5742 68.1898 22.1472 67.0433 23.0512C65.8968 23.9552 65.0196 25.1557 64.5066 26.5226L54.5173 22.7786C56.0558 18.6869 58.9812 15.2647 62.7836 13.1083C66.5861 10.9519 71.0247 10.1979 75.326 10.9778C79.6272 11.7577 83.5185 14.0221 86.3218 17.3763C89.1251 20.7305 90.6627 24.9619 90.6666 29.3333C90.6666 34.284 88.7 39.032 85.1993 42.5326C81.6986 46.0333 76.9507 48 72 48H26.6666C25.2521 48 23.8956 48.5619 22.8954 49.5621C21.8952 50.5623 21.3333 51.9188 21.3333 53.3333C21.3333 54.7478 21.8952 56.1044 22.8954 57.1045C23.8956 58.1047 25.2521 58.6666 26.6666 58.6666Z" fill="#77381F"/>
</svg>
