<svg width="720" height="324" viewBox="0 0 720 324" fill="none" xmlns="http://www.w3.org/2000/svg">
<g clip-path="url(#clip0_515_138)">
<path d="M120.557 103.811C115.19 86.1805 124.985 65.2768 141.968 58.1207C158.952 50.9645 180.753 58.5538 189.622 74.7089C189.964 57.5255 206.793 42.5123 223.904 44.1254C241.015 45.7385 254.741 63.6322 251.866 80.5768C255.607 67.2549 272.146 59.2338 284.923 64.5451C297.7 69.8564 303.68 87.2381 296.875 99.2862C274.598 138.458 240.062 169.222 198.585 186.84C185.398 192.396 170.624 181.134 164.622 168.143C158.62 155.153 157.756 140.248 151.727 127.27C145.697 114.292 130.856 103.088 120.557 103.811Z" fill="#BA723E"/>
<path d="M425.148 295.38C437.73 281.967 439.728 259.824 429.751 244.376C445.501 240.534 462.816 255.172 461.649 271.342C460.482 287.512 441.244 299.511 425.148 295.38Z" fill="#BA723E"/>
<path d="M546.944 163.195C564.374 153.983 582.851 144.519 602.552 145.268C622.253 146.017 642.869 161.167 642.086 180.866C641.61 192.843 648.526 203.763 655.699 213.367C662.872 222.97 670.828 232.704 673.007 244.49C675.185 256.277 668.914 270.649 657.071 272.496C643.771 274.57 633.363 260.21 631.439 246.888C629.515 233.566 632.449 219.674 628.878 206.696C625.306 193.717 610.504 182.033 598.89 188.838C593.279 192.03 586.92 193.674 580.465 193.6C574.01 193.527 567.69 191.739 562.153 188.42C551.203 181.666 544.463 168.617 546.944 163.195Z" fill="#BA723E"/>
<path d="M41.5242 34.2585C31.0588 44.0879 37.1677 63.858 50.3686 69.5039C63.5695 75.1499 79.4313 69.2895 89.5788 59.1323C99.7264 48.9751 105.407 35.309 110.843 22.02C111.929 19.364 112.134 16.4293 111.428 13.648C110.721 10.8666 109.141 8.3855 106.919 6.56969C104.697 4.75389 101.95 3.69932 99.084 3.56119C96.2177 3.42306 93.3827 4.20867 90.9964 5.80239C72.2437 18.3261 50.5938 25.74 41.5242 34.2585Z" fill="#BA723E"/>
<path d="M176.415 211.004C174.398 202.402 170.142 194.513 165.233 187.232C157.024 175.745 147.148 165.552 137.658 155.134C142.152 161.358 146.577 167.632 151.108 173.831C156.528 181.143 161.813 188.588 165.938 196.726C170.942 205.931 173.633 216.215 173.779 226.691C173.91 229.546 173.895 232.318 173.751 235.043C171.056 232.49 168.338 229.961 165.51 227.556C155.601 219.373 144.257 213.181 133.518 206.188C118.738 196.634 102.875 187.773 85.1817 185.395C79.1198 184.549 72.9997 184.195 66.8808 184.336C62.0569 184.432 57.1563 184.888 52.6171 186.622C49.2785 187.919 46.1354 189.672 43.2775 191.83C39.1663 194.809 37.02 196.357 33.7146 199.128C19.0621 211.103 8.95523 227.363 0 243.794C6.67279 234.838 12.4245 226.648 19.8626 218.386C26.4948 211.14 33.7964 204.537 41.6702 198.664C44.4991 196.489 47.4451 194.472 50.4949 192.62C51.2202 192.241 51.9315 191.831 52.689 191.518C52.8994 191.441 53.1613 191.324 53.338 191.24C61.2364 188.239 68.2263 188.797 77.3504 189.148C97.3967 190.262 112.383 198.214 130.568 209.653C140.754 215.904 151.574 221.048 161.798 227.231C165.886 229.831 169.788 232.707 173.723 235.531C173.128 245.617 170.664 255.044 166.411 265.345C166.516 265.04 165.048 268.156 164.689 268.909C163.239 271.718 161.642 274.44 159.923 277.093C157.529 280.541 154.926 283.838 152.129 286.967C145.096 295.386 136.403 302.264 126.592 307.171C122.197 306.834 117.785 306.693 113.381 306.562C109.656 306.496 105.868 306.211 102.211 307.078C99.1068 307.725 96.3509 309.345 93.4909 310.637C91.8514 311.289 88.1187 311.948 86.7612 310.735C81.9152 307.533 77.8163 301.046 73.6036 294.948C71.6529 292.351 70.4264 288.993 67.6945 287.103C63.2361 285.03 62.0975 291.243 61.1653 294.277C61.0243 294.754 60.8508 295.222 60.6689 295.685C60.5684 295.885 60.4564 296.08 60.3335 296.268L60.3054 296.298C60.27 296.318 60.2363 296.341 60.2002 296.36C60.162 296.373 60.1267 296.386 60.0733 296.405C59.0463 296.684 57.9695 296.727 56.9237 296.529C55.6931 296.259 54.3529 295.923 53.1894 296.592C50.1969 298.364 50.9757 300.973 50.0744 302.769C47.7912 307.791 44.977 311.708 40.1248 314.642C34.3693 318.389 28.077 319.781 21.5886 322.935C19.4878 323.805 23.0226 322.621 23.7881 322.461C30.1335 320.637 36.8393 319.805 42.608 316.382C48.0032 313.511 53.5561 306.8 54.8317 300.768L54.8377 300.75C59.4094 302.025 64.408 301.638 65.5956 296.128C65.8772 295.148 66.1989 294.076 66.5081 293.139C68.9151 296.846 72.8104 303.177 75.8676 306.92C79.5497 311.72 84.6756 317.697 91.4185 315.872C95.6822 315.193 99.9261 311.428 102.674 310.762C106.757 309.407 109.544 309.549 114.201 309.056C120.385 308.529 126.572 307.911 132.78 307.795C130.875 307.547 128.964 307.359 127.049 307.206C136.865 303.691 145.799 298.084 153.233 290.773C160.435 283.911 166.743 276 170.716 266.824C174.297 258.54 176.743 249.811 177.986 240.872C179.138 230.898 178.607 220.802 176.415 211.004V211.004Z" fill="#3F3D56"/>
<path d="M249.342 182.468C241.611 189.124 233.157 195.316 227.122 203.643C223.554 209.723 221.072 216.379 219.79 223.312C217.539 237.483 217.765 251.937 220.461 266.03C222.299 276.193 225.732 285.542 234.418 291.803C238.46 295.187 243.684 296.384 248.627 297.83C243.467 295.588 238.081 293.417 234.37 288.991C227.76 282.598 225.879 273.344 224.679 264.579C223.414 256.161 222.426 240.973 223.637 230.233C224.336 221.959 226.829 212.511 231.796 205.051C235.319 200.401 243.921 192.938 249.725 187.539C260.75 177.634 270.5 166.439 280.393 155.432C269.887 164.267 259.962 173.769 249.342 182.468Z" fill="#3F3D56"/>
<path d="M115.178 164.517C111.661 157.927 109.669 151.328 109.967 143.519C109.999 139.208 111.69 135.413 114.512 131.506C118.065 127.071 121.843 122.822 125.832 118.776C121.582 121.76 117.541 125.031 113.738 128.567C101.583 138.962 104.333 157.796 113.548 169.225C119.077 176.823 127.919 180.323 136.518 183.229C127.405 178.108 120.084 173.884 115.178 164.517Z" fill="#3F3D56"/>
<path d="M157.464 50.5603C152.102 47.9603 146.422 46.0737 140.569 44.9487C131.614 43.3731 122.265 45.9764 114.624 50.6933C107.117 55.3497 103.017 63.1899 100.784 71.5022C99.5727 76.2773 99.3855 81.2509 99.1638 86.1525C98.9795 95.2488 101.099 104.138 103.507 112.849C102.787 105.291 101.89 97.7005 102.479 90.1022C102.891 84.7412 103.721 79.4204 104.959 74.1882C106.094 70.2705 107.68 66.4978 109.684 62.9458C114.296 55.02 124.101 49.1684 134.966 47.6146C142.407 46.9105 149.352 48.5315 156.63 50.375C157.17 50.4637 158.187 50.9226 157.464 50.5603Z" fill="#3F3D56"/>
<path d="M188.291 73.9564C185.061 70.728 181.681 67.4999 177.496 65.5484C171.179 62.382 163.593 61.9825 157.657 66.1963C149.26 70.7869 142.847 78.0789 137.762 86.0677C141.234 82.562 144.911 79.2652 148.773 76.1944C153.136 73.0791 157.789 70.3932 162.669 68.1745C169.062 65.9753 175.717 67.9706 182.652 72.5047C186.44 75.0015 190.082 77.7117 193.562 80.622C193.967 80.9625 194.355 81.3226 194.751 81.6731C192.828 78.9166 190.666 76.3344 188.291 73.9564V73.9564Z" fill="#3F3D56"/>
<path d="M220.631 42.6536C215.151 29.0645 206.481 18.4006 190.858 17.6022C179.628 17.0462 168.734 21.5897 159.536 27.725C156.09 30.1818 152.879 32.9504 149.597 35.6184C154.198 33.047 158.623 30.1354 163.442 27.9751C168.726 25.6282 174.26 23.8924 179.938 22.8016C195.654 20.132 207.423 25.9609 215.904 40.8936C219.984 47.7206 223.717 54.7494 227.087 61.9531C225.393 55.3759 223.235 48.9267 220.631 42.6536V42.6536Z" fill="#3F3D56"/>
<path d="M236.502 85.9042C232.072 80.1209 224.202 75.9717 217.032 79.068C212.679 80.6388 209.26 83.9108 205.651 86.6897C209.538 84.9085 213.158 82.4202 217.328 81.3362C223.76 79.1728 230.876 82.9082 235.186 86.7251C236.857 88.2044 238.389 89.8321 239.765 91.5882C238.915 89.5666 237.819 87.6575 236.502 85.9042Z" fill="#3F3D56"/>
<path d="M199.798 107.079C194.157 104.425 188.171 102.05 181.835 102.18C173.967 102.333 166.574 106.352 161.056 111.789C157.057 115.584 153.653 119.96 150.956 124.768C148.531 129.285 147.028 134.221 145.236 139.008C148.094 134.27 150.594 129.296 153.975 124.896C157.533 120.68 161.521 116.847 165.873 113.457C175.88 106.362 183.898 104.686 197.687 109.33C203.157 110.975 207.914 112.571 212.693 115.429C210.181 112.559 204.201 109.03 199.798 107.079Z" fill="#3F3D56"/>
<path d="M215.589 136.629C210.563 133.562 204.626 132.339 198.797 133.171C190.643 134.413 184.616 142.483 179.491 148.351C184.728 144.351 189.657 139.901 195.565 137.296C200.131 135.708 205.153 135.748 209.949 136.638C213.704 137.378 217.287 138.817 220.51 140.879C220.608 140.937 220.706 140.994 220.802 141.053C219.242 139.381 217.492 137.897 215.589 136.629V136.629Z" fill="#3F3D56"/>
<path d="M295.412 58.561C294.467 50.132 289.027 42.9891 282.925 37.4316C280.412 35.0747 277.593 33.0662 274.545 31.4602C273.849 31.0641 270.818 29.7238 270.228 29.4614C266.185 27.7393 262.074 26.0508 257.69 25.4539C253.029 24.5947 248.29 25.2824 243.745 26.4519C235.042 28.392 227.162 32.7114 219.353 36.8645C231.189 32.7143 245.036 28.2456 254.997 29.8474C260.256 30.849 263.334 32.3392 266.979 33.9986C270.392 35.4695 273.648 37.2785 276.7 39.3986C281.833 43.2865 289.864 50.5648 291.754 58.6544C293.621 66.1803 294.165 71.4332 294.51 79.5083C295.86 72.6106 296.164 65.5491 295.412 58.561V58.561Z" fill="#3F3D56"/>
<path d="M270.228 29.4605C270.284 29.4845 270.341 29.5082 270.397 29.5323C270.077 29.3931 270.063 29.3873 270.228 29.4605Z" fill="#3F3D56"/>
<path d="M275.387 91.3405C272.632 88.7755 269.615 86.506 266.387 84.5689C263.265 82.9771 260.036 81.6047 256.723 80.4617C259.567 82.3156 262.537 83.9924 265.234 86.0633C268.296 88.6253 271.171 91.4031 273.836 94.3753C275.69 96.4208 277.228 98.7311 278.401 101.23C279.882 105.045 280.328 109.184 279.692 113.227C279.059 117.138 278.141 120.997 276.946 124.773C276.813 125.132 276.728 125.375 277.049 124.817C278.692 122.156 280.083 119.347 281.205 116.428C285.078 107.225 282.992 97.8547 275.387 91.3405Z" fill="#3F3D56"/>
<path d="M313.872 123.782C312.791 118.954 310.954 114.327 308.429 110.073C307.99 109.282 308.427 110.306 308.517 110.682C310.395 117.204 311.334 122.78 310.752 129.651C309.36 140.192 304.058 151.285 297.42 161.94C295.127 165.589 293.254 169.076 290.387 171.898C285.94 175.854 280.356 177.557 274.786 179.492C282.622 178.548 291.237 177.012 296.515 170.57C303.62 162.242 310.163 152.988 312.901 142.242C314.506 136.242 315.31 129.896 313.872 123.782Z" fill="#3F3D56"/>
<path d="M254.05 122.51C249.989 120.078 245.05 119.632 240.531 118.455C244.391 120.64 248.964 122.048 252.46 124.571C255.217 127.339 256.866 131.02 257.096 134.92C257.167 137.484 256.559 139.69 256.006 142.356C255.696 143.738 255.329 145.107 254.93 146.466C255.606 145.429 256.227 144.357 256.791 143.254C258.043 140.665 259.311 137.973 259.595 135.078C259.789 132.687 259.383 130.286 258.415 128.091C257.447 125.897 255.946 123.978 254.05 122.51V122.51Z" fill="#3F3D56"/>
<path d="M421.781 301.178C421.311 301.045 420.842 300.908 420.371 300.779C418.125 300.114 415.848 299.589 413.56 299.115C414.611 297.224 415.525 295.262 416.298 293.241C417.134 290.172 417.562 287.005 417.57 283.824C417.158 280.058 415.488 276.555 414.137 273.053C413.86 272.384 413.577 271.716 413.289 271.051C413.536 272.302 413.783 273.554 414.029 274.806C414.537 278.039 415.609 281.258 415.488 284.55C415.232 287.3 415.131 290.074 414.717 292.805C414.24 294.895 413.607 296.945 412.999 299.001C409.836 298.357 406.653 297.799 403.499 297.11C393.676 295.076 387.716 290.893 378.36 287.793C370.836 285.154 362.79 285.394 354.946 284.769C350.657 284.511 346.21 284.136 342.037 285.385C338.671 286.699 335.18 287.67 331.618 288.282C330.528 288.395 329.432 288.443 328.336 288.426C327.827 288.436 326.054 288.249 325.671 288.217C320.91 287.458 316.245 286.189 311.757 284.43C306.966 282.715 301.447 279.308 296.503 282.329C289.719 287.332 284.532 293.562 278.696 295.307C276.884 295.814 276.29 295.648 273.477 295.511C271.147 295.43 268.813 295.465 266.483 295.567C258.735 296.051 251.07 297.438 243.644 299.699C253.34 298.273 263.184 298.147 272.913 299.324C283.202 302.407 293.099 292.139 299.111 287.052C301.307 284.851 307.981 289.167 314.876 291.395C319.734 293.046 324.8 294.363 329.961 294.369C333.322 294.176 336.643 293.538 339.836 292.473C341.16 292.053 342.432 291.493 343.732 291.013C344.723 290.643 345.761 290.415 346.816 290.335C351.095 290.046 355.374 290.617 359.644 290.84C364.829 291.114 369.781 291.261 373.038 291.943C380.226 293.173 386.799 296.517 393.832 298.312C399.927 300.139 406.267 300.197 412.581 300.464C412.489 300.786 412.394 301.106 412.307 301.429C412.48 301.111 412.653 300.793 412.826 300.474C415.096 300.572 417.362 300.7 419.611 300.95C420.335 301.022 421.058 301.098 421.781 301.178Z" fill="#3F3D56"/>
<path d="M90.4764 21.8174C89.1361 10.2263 80.2642 -0.698327 67.8215 0.0349409C61.2617 0.189362 55.0775 2.28114 49.1684 5.02389C47.494 5.27906 45.8432 5.67021 44.2324 6.19347C40.4626 7.53812 36.9552 9.52798 33.8671 12.0742C37.1128 10.4249 40.4462 8.95433 43.8525 7.66894C42.4969 8.38162 41.1536 9.10726 39.8244 9.83285C46.0059 7.28005 52.4052 5.29017 58.9443 3.88747C61.0693 3.4846 63.2299 3.29975 65.3924 3.33576C68.1612 3.38973 70.2111 3.35981 72.7161 4.26176C80.6646 6.97684 84.3664 15.243 85.4404 21.1911C86.3741 26.0497 84.1295 33.2778 82.9848 36.1497C80.2711 41.8604 77.9774 45.8357 74.0583 49.3504C72.0458 51.1369 68.1512 52.7314 63.7357 54.1333C57.2876 56.3621 52.8324 56.5679 45.4971 56.2508C39.5878 55.8243 30.2071 51.1526 26.2639 43.3643C24.2034 39.6034 23.9202 35.0214 24.6138 30.7124C25.0744 26.6902 25.8387 22.7086 26.9001 18.8018C24.6453 24.1422 23.0801 29.7481 22.2424 35.4842C21.864 40.6312 23.4512 45.7302 26.6839 49.7532C28.8875 52.7218 31.6574 55.2245 34.8335 57.1169C38.0096 59.0093 41.5291 60.2538 45.1887 60.7787C55.2812 62.0027 65.5744 59.5521 74.5383 54.9138C84.0464 49.0334 91.5612 32.8887 90.4764 21.8174Z" fill="#3F3D56"/>
<path d="M720 312.021C719.808 311.941 719.615 311.862 719.423 311.782C715.941 310.267 712.351 309.013 708.683 308.029C706.464 302.039 704.077 296.099 702.452 289.911C699.482 278.566 697.28 267.022 693.933 255.777C689.544 241.62 684.055 227.855 678.893 213.974C672.224 194.044 665.703 173.875 654.919 155.707C650.904 148.698 646.399 141.981 641.438 135.606C635.664 127.738 629.584 122.343 619.593 120.868C613.749 119.837 607.921 121.428 602.245 122.7C593.968 124.694 585.74 126.897 577.557 129.248C561.229 133.952 545.201 139.64 529.561 146.281C520.897 149.985 512.436 154.142 503.945 158.225C500.05 154.006 496.246 149.707 492.675 145.214C489.153 140.964 482.61 130.275 478.092 123.863C473.73 117.592 469.059 111.454 463.357 106.334C455.81 99.6708 446.592 94.603 436.623 92.8108C421.907 90.1864 411.551 91.9886 397.642 96.9867C384.647 101.503 371.615 106.034 359.304 112.232C344.691 119.582 330.798 128.266 316.164 135.577C331.423 130.223 345.899 122.99 360.594 116.299C371.627 111.242 382.925 106.783 394.438 102.943C401.079 100.444 411.837 97.1965 416.652 96.6394C438.508 94.3543 455.816 101.981 469.265 119.639C474.734 126.558 482.594 139.997 489.395 148.752C497.248 158.733 506.339 167.662 514.858 177.063C521.757 184.25 525.992 193.458 530.978 203.492C537.201 215.956 540.72 227.508 545.881 241.359C549.22 250.261 553.681 258.675 557.398 267.414C561.273 275.934 564.357 284.878 568.94 293.049C568.518 292.968 568.092 292.888 567.674 292.802C561.846 291.688 555.912 289.857 549.931 290.646C547.077 290.986 544.497 292.392 541.679 292.904C541.267 292.992 540.112 293.188 539.834 293.244C533.959 293.952 528.074 292.629 522.182 292.945C517.779 292.795 513.989 294.411 509.814 295.391C504.797 296.406 499.725 297.124 494.623 297.541C481.486 298.435 474.96 295.734 462.124 294.772C449.356 294.072 436.615 296.274 424.381 299.812C436.659 298.015 449.15 297.342 461.499 298.829C466.847 299.423 475.036 301.684 482.143 302.366C488.957 303.104 495.841 302.898 502.599 301.755C506.253 301.252 509.876 300.538 513.448 299.617C517.45 298.315 518.293 297.95 521.912 297.909C526.656 297.693 531.356 298.476 536.091 298.533C540.502 298.428 544.86 297.56 548.974 295.967C557.711 293.752 570.507 300.706 582.799 299.335C587.099 298.859 588.414 298.161 591.85 298.29C596.654 298.339 601.855 299.986 608.114 301.19C613.781 302.348 619.512 303.165 625.276 303.638C628.918 303.976 632.586 303.735 636.221 304.14C641.134 304.796 645.612 307.099 650.303 308.578C654.582 310.023 659.129 310.493 663.613 309.955C668.477 309.272 671.982 308.096 675.677 308.042C681.329 307.794 684.775 308.945 690.956 309.815C696.239 310.663 701.316 309.935 706.58 309.593C707.483 309.619 708.38 309.698 709.275 309.803C709.322 309.875 709.371 309.955 709.416 310.025C709.39 309.954 709.363 309.882 709.337 309.81C712.687 310.308 716.007 310.985 719.284 311.84C719.523 311.9 719.762 311.961 720 312.021ZM707.359 307.744C704.128 307.296 697.953 307.6 695.936 307.137C691.104 306.517 686.486 304.903 681.707 304.034C678.855 303.56 675.957 303.417 673.072 303.608C669.92 303.852 666.846 304.625 663.719 305.049C663.06 305.094 660.664 305.282 660.302 305.222C658.91 305.237 657.52 305.123 656.15 304.881C653.257 304.297 650.424 303.449 647.686 302.348C643.383 300.615 638.963 299.127 634.293 298.885C628.745 298.825 623.207 298.394 617.715 297.597C614.927 297.25 607.285 295.752 602.289 294.605C596.399 293.151 590.263 292.449 584.3 293.898C580.138 294.712 574.663 294.128 569.446 293.148C566.515 285.503 564.714 277.461 562.064 269.714C558.764 258.997 554.003 248.825 550.154 238.308C547.559 231.403 545.253 224.391 542.608 217.506C539.925 210.59 536.775 203.863 533.466 197.227C530.901 192.233 528.415 187.182 525.395 182.443C522.459 178.276 519.211 174.338 515.68 170.661C511.857 166.613 507.989 162.593 504.203 158.501C519.648 153.479 534.987 148.135 550.499 143.315C562.608 139.322 574.71 135.284 587.055 132.069C593.48 130.375 599.901 128.657 606.393 127.238C612.913 125.834 616.074 125.249 621.78 126.89C630.228 128.834 635.141 136.224 640.879 144.048C648.873 155.372 655.616 167.528 660.99 180.305C664.076 187.641 669.257 202.972 672.563 213.153C676.523 224.694 681.459 235.877 685.134 247.521C689.478 259.923 692.758 272.665 697.166 285.045C699.569 292.536 704.362 301.777 708.089 307.901C707.845 307.849 707.603 307.79 707.359 307.744V307.744Z" fill="#3F3D56"/>
<path d="M416.5 118.384C409.131 120.647 402.003 123.622 394.737 126.184C376.406 132.596 358.235 139.801 341.492 149.728C356.718 143.775 372.465 139.24 387.546 132.911C397.497 128.979 406.851 123.786 416.277 118.768C416.809 118.504 417.35 118.26 417.898 118.033C417.43 118.143 416.96 118.244 416.5 118.384Z" fill="#3F3D56"/>
<path d="M440.798 140.71C432.919 143.97 423.788 146.772 415.427 149.7C402.676 154.1 389.814 158.176 377.097 162.676C388.53 160.646 400.002 158.634 411.076 155.066C422.249 151.251 433.337 146.645 443.2 140.091C443.787 139.681 444.368 139.262 444.942 138.833C443.578 139.497 442.197 140.123 440.798 140.71Z" fill="#3F3D56"/>
<path d="M546.465 266.073C541.994 258.199 536.697 250.814 532.5 242.777C529.018 236.106 527.673 231.532 524.31 224.242C519.814 214.674 512.527 206.737 504.734 199.726C497.842 193.274 490.449 187.379 482.624 182.097C489.624 188.334 496.243 194.984 502.447 202.013C508.233 208.387 511.864 212.609 516.213 219.762C521.014 227.832 521.616 231.997 526.077 241.186C529.522 248.077 534.096 254.339 538.817 260.402C544.165 266.98 548.916 274.023 553.013 281.445C553.227 281.821 553.439 282.198 553.649 282.576C551.714 276.886 549.311 271.366 546.465 266.073V266.073Z" fill="#3F3D56"/>
<path d="M524.982 270.173C519.702 261.792 514.983 253.068 509.632 244.728C505.87 238.748 502.116 232.697 497.341 227.459C493.257 222.879 488.648 218.794 483.61 215.29C479.306 212.637 474.871 210.202 470.323 207.994C474.526 211.209 478.303 213.893 482.007 217.043C485.86 220.547 489.408 224.374 492.61 228.482C495.947 232.416 499.848 238.875 503.593 244.506C509.473 253.11 515.508 261.673 522.373 269.525C524.588 271.948 526.888 274.293 529.243 276.579C527.798 274.46 526.377 272.325 524.982 270.173Z" fill="#3F3D56"/>
<path d="M684.917 274.191C681.828 266.724 680.444 258.708 677.51 251.197C672.727 239.261 667.724 229.633 663.522 218.828C658.303 205.998 657.697 191.616 651.445 179.151C648.128 172.499 643.411 166.698 638.531 161.139C635.124 157.543 631.51 151.894 626.143 151.573C620.881 151.678 615.77 153.177 610.646 154.24C603.107 156.037 595.553 157.831 588.119 160.03C582.908 161.825 577.61 163.358 572.245 164.622C560.149 167.032 547.893 168.555 535.709 170.445C552.019 170.032 568.676 170.57 584.556 166.295C596.475 162.95 613.877 158.752 623.396 157.048C623.891 156.911 625.927 156.904 626.327 156.863C626.375 156.873 626.424 156.877 626.471 156.888C626.629 156.95 626.727 156.985 626.794 157.006C627.044 157.134 627.287 157.276 627.521 157.433C630.53 159.465 635.883 166.161 639.622 170.623C641.761 173.29 643.696 176.113 645.413 179.069C646.521 181.012 647.515 183.017 648.392 185.074C652.452 195.699 653.853 207.131 657.552 217.868C660.055 224.001 662.504 230.16 665.219 236.203C667.82 241.821 670.708 247.301 673.311 252.918C675.925 258.147 677.45 263.932 680.497 270.277C683.683 276.789 687.218 283.124 691.087 289.255C688.929 284.274 686.881 279.368 684.917 274.191Z" fill="#3F3D56"/>
<path d="M157.35 237.307C149.464 233.284 141.94 228.636 134.473 223.898C118.377 214.762 97.8372 210.443 79.3986 210.681C68.6162 211.29 59.6832 218.044 50.8579 223.59C39.7222 230.868 28.9521 238.687 18.4415 246.837C29.2416 240.746 40.0138 234.606 50.8165 228.519C57.7683 224.692 66.3197 219.404 71.8428 217.375C84.2177 212.393 112.689 219.272 127.66 224.917C131.969 226.542 136.879 229.303 142.147 231.814C147.611 234.307 153.249 236.402 158.913 238.392C159.402 238.562 159.891 238.73 160.38 238.9C159.368 238.373 158.358 237.842 157.35 237.307Z" fill="#3F3D56"/>
<path d="M444.601 271.394C442.56 267.149 439.787 263.297 436.41 260.015C435.313 259.038 434.1 257.91 432.54 257.931C432.076 257.943 431.622 258.078 431.227 258.323C430.831 258.567 430.507 258.911 430.288 259.321C430.068 259.731 429.961 260.191 429.977 260.656C429.993 261.12 430.132 261.573 430.379 261.966C433.713 266.877 435.889 269.76 436.7 275.154C436.972 277.877 436.885 280.624 436.44 283.325C434.522 288.777 430.769 293.67 427.674 298.635C431.795 294.145 436.439 289.766 439.101 284.214C440.707 279.464 440.849 274.342 439.509 269.51C440.511 270.809 441.458 272.142 442.313 273.452C445.83 278.431 446.856 282.523 445.048 288.448C444.974 288.794 444.536 289.894 444.937 289.114C446.453 286.606 447.317 283.759 447.45 280.831C447.54 277.47 446.061 274.339 444.601 271.394Z" fill="#3F3D56"/>
<path d="M643.971 50.1998C637.964 50.6427 629.382 51.1586 625.502 50.1997C614.685 47.4775 605.458 41.1739 594.181 36.0388C585.985 32.7764 577.238 29.0595 568.256 30.7887C562.515 31.8267 556.988 33.8189 551.905 36.6827C544.91 40.469 541.801 42.7251 534.987 42.3491C532.044 42.2012 528.172 40.372 524.8 38.9149C520.566 37.0033 516.26 35.2428 511.855 33.7615C504.401 31.4684 493.284 28.4598 487.246 34.9879C482.775 39.4242 479.971 45.1377 476.989 50.6052C474.04 55.9758 470.632 61.0737 467.356 66.2465C471.58 61.512 475.559 56.5644 479.278 51.4232C483.151 45.9304 485.559 41.5915 490.575 37.4736C496.017 33.1038 508.781 37.8996 518.189 41.5143C521.243 42.669 527.13 45.7791 532.246 47.0069C534.839 47.4494 537.487 47.4736 540.089 47.0787C546.062 46.2181 551.081 42.4896 556.394 39.8933C561.816 37.2797 568.145 35.0565 574.86 35.3825C581.098 36.0493 591.27 39.915 597.491 43.2881C606.66 48.0635 615.871 53.6947 626.279 55.1132C632.429 55.5461 638.549 54.3637 644.599 53.4034C653.217 51.9639 661.775 50.1963 670.306 48.3132C661.527 48.944 652.753 49.627 643.971 50.1998Z" fill="#3F3D56"/>
<path d="M396.14 193.176C386.826 195.278 377.742 199.55 370.733 206.103C370.481 206.358 369.844 207.063 369.549 207.398C364.759 203.282 359.738 199.442 354.511 195.897C358.589 200.327 362.865 204.57 366.952 208.991C370.014 213.025 372.1 209.027 374.731 207.03C377.206 205.05 380.41 202.76 383.697 200.522C387.818 197.784 392.149 195.376 396.651 193.322C397.006 193.169 397.36 193.015 397.714 192.861C397.189 192.965 396.662 193.057 396.14 193.176Z" fill="#3F3D56"/>
<path d="M535.763 100.685C534.463 101.345 532.531 102.677 531.515 103.338C531.059 102.775 530.596 102.158 529.994 101.459C526.682 97.552 523.145 93.8407 519.591 90.1553C522.553 94.9479 525.737 99.6 528.662 104.415C530.44 108.449 533.21 106.19 535.974 104.701C537.917 103.718 539.953 102.931 542.051 102.35C550.984 99.3412 564.488 96.0296 571.232 93.5103C559.302 94.7352 546.801 95.6628 535.763 100.685Z" fill="#3F3D56"/>
<path d="M374.428 55.3599C369.525 56.6504 364.566 58.0296 360.07 60.4213C355.4 63.2703 351.032 66.992 348.283 71.7812C348.041 72.222 347.831 72.68 347.612 73.1331C343.349 70.198 338.775 67.7427 333.972 65.8118C338.569 69.093 342.938 72.6827 347.048 76.556C348.662 77.6118 349.932 76.0534 350.641 74.7199C351.234 73.6607 351.923 72.6581 352.699 71.7247C356.225 67.7497 359.917 63.956 364.302 61.2852C367.957 59.059 371.75 57.0693 375.559 55.1205C375.984 54.9068 374.616 55.3467 374.428 55.3599Z" fill="#3F3D56"/>
</g>
<defs>
<clipPath id="clip0_515_138">
<rect width="720" height="323.251" fill="white"/>
</clipPath>
</defs>
</svg>
