<svg width="128" height="128" viewBox="0 0 128 128" fill="none" xmlns="http://www.w3.org/2000/svg">
<path d="M69.3334 112V122.667H58.6667V112H16.0001C14.5856 112 13.229 111.438 12.2288 110.438C11.2287 109.438 10.6667 108.081 10.6667 106.667V21.3333C10.6667 19.9189 11.2287 18.5623 12.2288 17.5621C13.229 16.5619 14.5856 16 16.0001 16H48.0001C51.0272 15.9964 54.0203 16.6387 56.7794 17.884C59.5385 19.1293 62.0002 20.9489 64.0001 23.2213C66 20.9489 68.4616 19.1293 71.2208 17.884C73.9799 16.6387 76.973 15.9964 80.0001 16H112C113.415 16 114.771 16.5619 115.771 17.5621C116.772 18.5623 117.333 19.9189 117.333 21.3333V106.667C117.333 108.081 116.772 109.438 115.771 110.438C114.771 111.438 113.415 112 112 112H69.3334ZM106.667 101.333V26.6667H80.0001C77.1711 26.6667 74.458 27.7905 72.4576 29.7909C70.4572 31.7913 69.3334 34.5044 69.3334 37.3333V101.333H106.667ZM58.6667 101.333V37.3333C58.6667 34.5044 57.5429 31.7913 55.5425 29.7909C53.5422 27.7905 50.8291 26.6667 48.0001 26.6667H21.3334V101.333H58.6667Z" fill="#77381F"/>
</svg>
