<svg width="128" height="128" viewBox="0 0 128 128" fill="none" xmlns="http://www.w3.org/2000/svg">
<path d="M90.6667 16.0002H112C113.415 16.0002 114.771 16.5621 115.771 17.5623C116.772 18.5625 117.333 19.919 117.333 21.3335V106.667C117.333 108.081 116.772 109.438 115.771 110.438C114.771 111.438 113.415 112 112 112H16.0001C14.5856 112 13.229 111.438 12.2288 110.438C11.2287 109.438 10.6667 108.081 10.6667 106.667V21.3335C10.6667 19.919 11.2287 18.5625 12.2288 17.5623C13.229 16.5621 14.5856 16.0002 16.0001 16.0002H37.3334V5.3335H48.0001V16.0002H80.0001V5.3335H90.6667V16.0002ZM106.667 58.6668H21.3334V101.333H106.667V58.6668ZM80.0001 26.6668H48.0001V37.3335H37.3334V26.6668H21.3334V48.0002H106.667V26.6668H90.6667V37.3335H80.0001V26.6668ZM32.0001 69.3335H42.6667V80.0002H32.0001V69.3335ZM58.6667 69.3335H69.3334V80.0002H58.6667V69.3335ZM85.3334 69.3335H96.0001V80.0002H85.3334V69.3335Z" fill="#77381F"/>
</svg>
