<svg width="720" height="731" viewBox="0 0 720 731" fill="none" xmlns="http://www.w3.org/2000/svg">
<g clip-path="url(#clip0_515_171)">
<path d="M587.038 81.6315C591.211 54.1303 561.042 29.1744 533.491 33.8811C505.94 38.5879 486.259 66.6589 485.927 94.4698C485.54 126.946 506.665 158.165 500.547 190.068C488.839 251.11 391.052 264.939 380.579 326.203C375.838 353.94 393.251 382.413 417.982 396.055C442.713 409.698 473.038 410.317 500.492 403.575C527.946 396.833 553.175 383.336 577.918 369.714C608.899 352.658 640.03 334.92 665.376 310.32C693.814 282.719 714.281 246.211 719.001 206.963C723.72 167.715 711.663 125.991 683.86 97.7557C656.057 69.5205 612.264 56.6951 574.478 68.9056" fill="#BA723E"/>
<path d="M681.398 730.588C493.676 497.432 435.026 696.447 233.999 698.154C187.558 691.428 149.493 655.921 101.474 655.143C56.1545 651.835 7.10046 680.92 0 727.515C12.0694 671.426 80.2534 649.394 130.441 668.548C377.286 826.523 451.085 466.357 681.398 730.588Z" fill="#3F3D56"/>
<path d="M332.078 385.482C388.691 456.064 454.038 543.826 423.857 637.714C472.214 546.655 403.334 440.387 332.078 385.482Z" fill="#3F3D56"/>
<path d="M648.358 129.919C651.491 465.592 448.688 330.071 473.811 614.545C484.293 557.444 468.987 481.752 519.67 440.27C625.401 375.626 667.162 247.408 648.358 129.919Z" fill="#3F3D56"/>
<path d="M653.002 129.388C678.347 17.3658 482.545 -55.5933 438.698 54.5025C459.487 232.452 329.976 215.669 316.944 352.939C319.248 398.334 348.598 443.13 392.256 458.264C349.373 440.623 321.962 392.88 324.348 346.919C341.04 239.382 483.177 206.259 449.202 76.3329C463.908 -46.1005 674.531 20.2271 653.002 129.388Z" fill="#3F3D56"/>
<path d="M325.195 196.104C356.175 229.278 368.239 278.154 403.902 309.109C384.266 272.921 368.542 212.227 325.195 196.104Z" fill="#3F3D56"/>
<path d="M377.206 188.665C362.328 198.981 363.538 209.707 368.014 225.668C377.519 217.273 382.839 200.389 377.206 188.665Z" fill="#3F3D56"/>
<path d="M312.74 231.609C323.319 245.416 332.114 242.778 347.253 238.089C339.634 228.885 323.031 224.702 312.74 231.609Z" fill="#3F3D56"/>
<path d="M358.376 156.589C345.914 165.778 354.068 170.566 360.205 179.595C367.394 173.802 367.011 161.209 358.376 156.589Z" fill="#3F3D56"/>
<path d="M299.619 201.543C302.843 217.394 313.017 216.519 325.936 211.338C320.618 203.234 309.892 198.32 299.619 201.543Z" fill="#3F3D56"/>
<path d="M315.86 164.361C308.194 176.918 317.287 176.395 328.01 175.323C329.219 168.897 324.818 163.795 315.86 164.361Z" fill="#3F3D56"/>
<path d="M524.717 370.034C510.743 364.902 512.054 373.802 514.536 384.654C521.476 384.538 526.36 379.006 524.717 370.034Z" fill="#3F3D56"/>
<path d="M584.311 276.964C567.94 287.463 566.541 299.188 566.514 317.446C578.744 309.816 588.355 291.029 584.311 276.964Z" fill="#3F3D56"/>
<path d="M597.578 191.297C583.047 200.579 585.695 211.824 594.213 224.573C600.951 215.514 603.234 201.6 597.578 191.297Z" fill="#3F3D56"/>
<path d="M576.57 86.9419C567.989 102.315 573.664 109.592 583.535 122.342C589.472 111.615 587.127 94.0174 576.57 86.9419Z" fill="#3F3D56"/>
<path d="M511.718 97.7119C500.68 109.436 507.44 116.867 519.184 123.998C522.66 115.154 520.367 103.909 511.718 97.7119Z" fill="#3F3D56"/>
<path d="M503.504 159.138C486.387 166.438 484.66 179.779 489.003 196.229C498.722 187.313 505.655 171.982 503.504 159.138Z" fill="#3F3D56"/>
<path d="M536.523 210.25C521.438 218.401 523.269 227.01 526.175 242.129C536.112 236.147 542.13 220.879 536.523 210.25Z" fill="#3F3D56"/>
<path d="M503.944 279.821C485.503 286.98 481.392 301.472 483.486 319.721C494.818 310.359 504.24 293.901 503.944 279.821Z" fill="#3F3D56"/>
<path d="M398.538 357.453C394.555 373.798 404.248 379.173 418.927 381.644C417.518 371.015 409.615 360.291 398.538 357.453Z" fill="#3F3D56"/>
<path d="M441.755 293.038C428.007 303.257 431.617 314.076 441.116 325.936C447.09 316.549 448.23 302.728 441.755 293.038Z" fill="#3F3D56"/>
<path d="M455.235 220.809C444.196 232.533 450.956 239.964 462.7 247.095C466.176 238.251 463.884 227.006 455.235 220.809Z" fill="#3F3D56"/>
<path d="M374.907 338.464C366.366 352.3 374.358 358.764 387.388 363.942C389.081 354.299 384.629 343.238 374.907 338.464Z" fill="#3F3D56"/>
<path d="M552.378 493.612C563.056 532.577 564.864 574.778 552.249 613.46C580.733 581.987 582.463 524.11 552.378 493.612Z" fill="#3F3D56"/>
<path d="M621.383 480.512C616.269 511.695 603.857 542.596 580.899 564.988C614.521 556.316 637.841 511.644 621.383 480.512Z" fill="#3F3D56"/>
<path d="M549.645 544.341C552.8 530.145 544.79 534.902 536.029 540.059C536.771 546.044 542.019 548.56 549.645 544.341Z" fill="#3F3D56"/>
<path d="M523.724 475.258C513.773 488.612 521.716 497.831 535.352 502.901C536.527 492.531 532.523 481.629 523.724 475.258Z" fill="#3F3D56"/>
<path d="M568.138 453.508C552.307 454.033 551.655 469.797 562.205 478.379C567.965 470.896 569.675 463.27 568.138 453.508Z" fill="#3F3D56"/>
<path d="M584.516 483.09C570.126 482.558 578.945 487.704 586.32 492.641C591.294 491.516 591.361 487.744 584.516 483.09Z" fill="#3F3D56"/>
<path d="M605.294 474.892C591.205 482.009 595.845 490.429 604.832 500.017C607.89 496.563 609.615 492.141 609.7 487.539C609.784 482.937 608.223 478.455 605.294 474.892V474.892Z" fill="#3F3D56"/>
<path d="M648.988 456.347C637.974 446.911 639.306 456.306 640.404 465.997C645.735 468.165 649.774 464.851 648.988 456.347Z" fill="#3F3D56"/>
<path d="M662.408 501.784C649.766 493.802 648.67 502.723 648.401 514.068C655.416 515.418 661.754 510.988 662.408 501.784Z" fill="#3F3D56"/>
<path d="M648.96 547.174C643.886 533.684 641.204 543.021 638.202 551.954C641.585 556.274 646.152 555.121 648.96 547.174Z" fill="#3F3D56"/>
<path d="M118.631 132.663C306.075 49.7342 192.566 354.854 108.226 184.35C99.4152 160.147 112.916 127.368 140.88 124.368C81.5473 130.941 94.7404 212.497 133.71 238.266C274.444 295.18 262.264 34.2119 118.631 132.663Z" fill="#3F3D56"/>
<path d="M82.3748 448.255C72.167 513.55 81.6897 581.878 104.751 642.864C98.538 585.384 90.9814 503.303 82.3748 448.255Z" fill="#3F3D56"/>
<path d="M201.059 344.921C156.731 368.292 120.75 403.313 92.4537 443.653C130.41 417.03 177.084 375.786 201.059 344.921Z" fill="#3F3D56"/>
<path d="M293.74 451.04C283.935 409.215 251.302 376.677 210.825 363.281C240.331 389.066 268.483 421.604 293.74 451.04Z" fill="#3F3D56"/>
<path d="M307.152 696.795C306.905 616.355 299.243 535.175 289.117 456.155C282.271 530.406 288.596 629.253 307.152 696.795Z" fill="#3F3D56"/>
<path d="M156.652 453.617C145.719 521.878 149.005 592.504 161.459 659.672C165.799 594.876 164.64 507.408 156.652 453.617Z" fill="#3F3D56"/>
<path d="M293.924 451.394C229.551 437.61 160.37 452.084 95.2432 454.235C160.615 468.665 228.893 457.255 293.924 451.394Z" fill="#3F3D56"/>
<path d="M142.957 392.036C150.816 362.588 150.138 330.944 142.728 301.366C139.67 303.673 132.387 309.364 129.229 311.265C126.396 312.973 123.416 314.426 120.322 315.605C101.663 317.864 118.571 345.707 117.706 359.129C126.393 423.358 126.145 363.721 125.571 331.89C123.865 326.598 130.461 327.766 133.2 324.875C139.132 345.439 141.006 371.686 142.957 392.036Z" fill="#3F3D56"/>
<path d="M243.171 706.166C245.275 676.607 249.183 645.926 247.843 616.925C232.253 619.81 198.27 624.43 204.192 646.357C204.746 649.427 206.601 657.493 207.235 660.644C214.052 697.599 211.474 657.438 212.6 640.858C219.183 637.662 226.102 635.201 233.23 633.521C235.749 654.318 236.288 685.338 243.171 706.166Z" fill="#3F3D56"/>
<path d="M182.216 508.326C202.967 503.745 224.184 501.586 245.437 501.894C245.236 504.7 245.42 510.064 245.467 512.972C232.358 516.047 211.892 525.829 195.888 526.673C188.22 525.212 181.145 516.712 184.405 508.561C179.289 517.752 186.843 528.876 196.15 531.584C212.477 529.65 268.79 534.42 259.574 514.922C259.47 506.134 259.329 497.076 259.142 488.306C233.89 487.395 201.854 495.818 182.216 508.326Z" fill="#3F3D56"/>
<path d="M78.565 661.776C93.3555 629.17 46.1231 588.827 30.3142 631.175C4.74008 626.996 1.30073 657.791 21.0436 669.968C10.6528 653.367 12.2139 639.61 33.9235 644.51C58.5797 612.613 71.3022 628.008 78.565 661.776Z" fill="#3F3D56"/>
<path d="M417.974 651.094C416.712 595.568 358.544 598.007 356.547 649.246C336.142 649.431 343.711 676.365 345.176 664.908C347.94 652.155 361.007 662.432 367.641 666.008C362.822 647.096 372.767 631.992 388.488 621.59C401.819 624.052 413.142 638.993 417.974 651.094Z" fill="#3F3D56"/>
<path d="M317.266 88.511C298.475 78.7982 272.542 117.007 293.217 121.075C266.393 95.6426 295.862 145.65 298.021 156.441C297.925 134.427 293.83 101.445 317.266 88.511Z" fill="#3F3D56"/>
<path d="M257.607 271.029C246.609 267.41 227.261 270.049 226.159 283.441C222.167 288.585 209.865 270.557 213.99 281.797C224.96 325.158 233.399 281.66 257.607 271.029Z" fill="#3F3D56"/>
<path d="M678.488 356.639C638.08 344.628 656.165 394.131 637.586 366.935C635.544 375.951 646.911 393.925 653.172 404.236C661.582 418.125 645.385 366.534 678.488 356.639Z" fill="#3F3D56"/>
</g>
<defs>
<clipPath id="clip0_515_171">
<rect width="720" height="730.588" fill="white"/>
</clipPath>
</defs>
</svg>
