<svg width="720" height="375" viewBox="0 0 720 375" fill="none" xmlns="http://www.w3.org/2000/svg">
<g clip-path="url(#clip0_515_119)">
<path d="M330.85 182.894C348.414 208.934 343.283 247.762 319.557 268.346C299.462 285.779 298.151 320.591 316.879 339.486C335.607 358.381 370.429 357.379 388.04 337.44C405.651 317.5 402.343 282.821 381.279 266.571C369.754 257.68 364.528 242.485 364.304 227.931C364.081 213.377 368.198 199.147 372.278 185.174C359.114 185.869 345.949 186.564 330.85 182.894Z" fill="#BA723E"/>
<path d="M427.285 53.3944C423.245 52.9155 419.229 54.2737 415.43 55.5064C410.196 57.3577 407.743 58.3638 400.696 61.4567C388.14 67.1725 375.587 74.5407 365.119 83.956C365.518 82.6833 365.957 81.4232 366.456 80.1825C369.343 73.4865 373.551 67.4628 377.573 61.4115C382.363 54.1957 387.593 47.2822 393.233 40.7103C394.279 41.6851 395.656 42.2273 397.086 42.2276C404.557 42.0425 404.537 31.098 397.086 30.8926C391.93 31.0203 390.346 36.2707 392.306 39.581C388.007 42.687 383.914 46.0687 380.053 49.7048C371.757 57.7761 363.488 66.3979 358.058 76.7116C355.606 69.0975 352.13 61.8518 347.727 55.1735C342.408 47.3829 335.451 39.8528 326.402 36.5701C320.282 34.7991 314.065 38.5714 315.786 45.4383C318.189 53.3413 319.838 56.8352 322.032 63.0049C325.696 73.1997 328.98 81.4535 335.014 91.3522C338.662 96.6448 343.629 100.757 348.655 104.756C348.613 105.448 348.66 106.142 348.794 106.822C349.065 107.801 349.623 108.676 350.396 109.335C349.463 128.764 353.806 148.674 359.828 167.028C354.699 167.943 344.936 169.989 338.765 171.177C330.622 172.489 323.091 173.282 314.642 174.301C314.129 173.321 313.251 172.292 312.875 171.609C313.21 172.532 313.497 173.47 313.789 174.406C312.841 174.521 311.89 174.637 310.915 174.759C311.935 174.839 312.956 174.905 313.977 174.978C314.437 176.503 314.858 178.04 315.204 179.6C317.36 189.885 317.422 201.25 317.913 212.534C317.846 223.041 315.498 234.638 312.13 244.5C307.053 255.767 301.963 258.555 295.962 269.329C287.068 285.41 277.71 302.418 277.024 321.194C277.229 331.165 280.387 340.852 286.098 349.028C290.985 356.162 298.496 360.87 306.434 363.981C320.82 370.097 336.211 373.504 351.833 374.031C370.017 374.28 388.154 365.66 398.6 350.626C413.65 329.839 420.526 295.158 412.957 270.47C409.028 259.062 405.087 252.817 398.708 245.743C394.884 241.489 390.192 238.087 386.54 233.674C385.601 232.462 384.831 231.128 384.251 229.709C383.229 226.7 382.475 223.606 381.995 220.465L382.189 221.909C381.341 217.337 382.195 209.833 382.33 209.792C384.366 199.218 386.738 191.11 390.559 184.254C391.999 181.695 393.571 179.212 395.268 176.815C396.429 175.547 397.343 174.073 397.963 172.47C398.256 171.282 398.165 170.033 397.704 168.9C397.242 167.768 396.434 166.811 395.395 166.166C394.338 165.453 392.792 165.398 391.388 165.354C381.621 165.476 371.789 165.323 362.092 166.654C361.622 166.72 361.021 166.817 360.316 166.94C358.441 145.786 357.847 122.944 360.714 104.157C361.374 103.063 362.125 102.027 362.961 101.06C372.269 90.4578 378.561 85.6999 389.504 78.7898C401.337 71.682 408.349 69.1486 421.85 64.7575C422.414 64.5979 422.862 64.4805 423.263 64.3795C422.516 65.7426 421.635 67.0307 420.764 68.3161C413.969 77.0778 405.758 84.6421 396.469 90.6963C389.55 95.3358 380.247 99.1552 373.411 102.069C370.15 103.446 366.848 104.73 363.574 106.076C365.084 105.779 366.596 105.497 368.108 105.21C390.646 101.169 409.606 94.8 425.725 77.6891C429.043 73.8456 432.766 69.911 434.138 64.9025C435.31 60.015 432.757 53.9167 427.285 53.3944ZM383.631 175.341C378.654 182.813 375.617 191.416 373.456 200.099C370.602 210.365 369.958 221.318 373.397 231.527C375.939 240.263 383.405 246.004 389.36 252.412C394.375 257.446 399.183 265.891 401.161 271.596C406.855 289.483 405.591 301.638 400.361 321.178C397.669 329.581 397.221 331.231 392.514 339.16C387.77 346.41 390.72 342.507 386.1 347.754C381.634 352.084 382.106 351.614 376.144 355.389C371.366 358.356 362.171 361.623 353.264 361.673C336.413 361.352 317.129 356.118 302.47 347.75C295.032 343.439 289.547 331.714 288.6 322.267C288.633 312.498 288.664 315.402 290.061 308.322C291.56 303.017 293.406 297.817 295.588 292.756C295.996 291.793 296.518 290.559 295.678 292.533C298.582 285.21 302.284 280.361 307.252 271.447C309.834 267.485 312.561 265.126 316.748 259.042C317.501 257.98 316.488 259.323 316.205 259.687C324.596 248.176 325.498 233.479 326.529 226.313C327.703 219.921 325.589 207.262 322.876 197.373C320.925 189.467 319.034 181.994 315.061 175.056C329.914 176.084 344.796 176.339 359.606 174.482C365.509 173.892 374.774 174.65 383.631 175.341V175.341ZM340.349 92.3312C333.476 80.305 331.129 63.4742 326.411 48.841C326.168 48.0376 325.883 47.2452 325.598 46.4526C325.836 46.6007 326.08 46.7399 326.31 46.8998C326.616 47.1237 326.923 47.3474 327.229 47.5708C327.371 47.6833 327.538 47.8141 327.741 47.9725C330.897 50.5397 333.734 53.4754 336.192 56.717L336.016 56.4883C337.055 57.5144 341.685 64.6033 344.002 69.4781C347.079 75.7882 349.2 81.2395 349.454 87.6102C349.627 91.9996 349.489 96.3957 349.039 100.766C349.007 101.495 348.91 102.224 348.82 102.953C345.757 99.6096 342.927 96.0609 340.349 92.3312V92.3312Z" fill="#3F3D56"/>
<path d="M388.956 16.2573C381.486 16.4425 381.505 27.3869 388.956 27.5924C396.427 27.4072 396.407 16.4627 388.956 16.2573Z" fill="#3F3D56"/>
<path d="M401.962 0C394.492 0.185157 394.511 11.1296 401.963 11.3351C409.433 11.1499 409.414 0.205388 401.962 0Z" fill="#3F3D56"/>
<path d="M416.598 6.50366C409.128 6.68882 409.147 17.6333 416.598 17.8387C424.069 17.6536 424.05 6.70914 416.598 6.50366Z" fill="#3F3D56"/>
<path d="M427.979 21.1375C420.509 21.3225 420.528 32.267 427.979 32.4725C435.449 32.2874 435.43 21.3428 427.979 21.1375Z" fill="#3F3D56"/>
<path d="M410.095 34.1436C402.625 34.3287 402.644 45.2732 410.095 45.4786C417.566 45.2936 417.546 34.349 410.095 34.1436Z" fill="#3F3D56"/>
<path d="M405.218 19.5115C397.747 19.6966 397.767 30.6411 405.218 30.8465C412.688 30.6614 412.669 19.7169 405.218 19.5115Z" fill="#3F3D56"/>
<path d="M350.24 339.712C342.531 339.147 336.156 336.888 331.576 332.001C328.477 327.741 327.37 324.559 325.479 318.576C322.756 308.245 322.918 308.855 322.482 299.281C322.797 290.808 323.641 285.714 326.317 276.501C327.994 271.775 331.422 265.779 334.489 260.116C329.86 264.687 325.187 269.333 321.741 274.892C314.663 287.739 311.269 303.474 316.208 317.648C319.322 326.364 323.942 336.254 333.336 339.433C338.304 341.254 343.693 341.601 348.853 340.431C350.067 340.138 353.139 339.832 350.24 339.712Z" fill="#3F3D56"/>
<path d="M719.041 232.799C716.376 228.409 710.87 229.287 706.481 229.569C702.047 229.854 697.601 229.954 693.16 230.085C673.89 230.617 654.623 231.683 635.339 231.714C630.344 231.486 625.351 231.376 620.36 231.349C621.342 230.468 622.327 229.592 623.292 228.693C631.964 220.871 638.877 211.403 646.286 202.434C656.585 189.955 667.727 174.36 675.491 157.339C681.141 143.541 694.232 111.146 672.892 105.381C661.241 103.389 654.188 115.835 649.169 124.422C647.001 128.236 644.779 132.649 642.632 137.174C642.923 125.764 642.607 114.267 640.363 103.05C638.538 96.1722 636.142 89.4584 633.201 82.9784C627.47 69.2049 610.998 52.2253 597.129 66.9863C594.103 70.076 591.475 73.5327 589.308 77.2757C586.998 82.5193 585.404 88.0502 584.57 93.7192C581.546 112.952 582.817 132.29 585.019 151.565C581.33 144.614 577.247 137.689 571.028 132.808C563.208 126.29 549.467 122.999 541.953 131.593C539.667 134.316 538.055 137.538 537.245 141C537.06 141.468 537.165 141.291 537.338 140.937C536.189 143.971 536.002 147.234 535.552 150.439C535.171 154.359 535.342 158.312 536.061 162.184C536.115 162.463 536.146 162.617 536.168 162.721C536.19 162.878 536.21 163.035 536.23 163.193C537.169 168.263 538.386 173.363 540.862 177.925C547.59 189.324 555.792 200.236 566.12 208.619C570.291 212.065 574.844 214.999 579.183 218.22C583.383 221.465 587.305 225.031 591.159 228.674C591.277 229.813 591.402 230.952 591.501 232.093C569.821 233.241 548.176 235.508 526.572 237.542C524.739 237.775 522.912 238.047 521.089 238.36C523.41 238.391 525.73 238.471 528.048 238.6C547.321 240.021 566.587 241.601 585.914 242.06C588.305 242.072 590.693 242.138 593.08 242.23C593.415 242.893 593.84 243.506 594.344 244.051C595.506 245.199 596.994 245.96 598.604 246.229C600.215 246.498 601.869 246.263 603.341 245.556C604.84 246.07 606.454 246.148 607.997 245.781C609.539 245.415 610.945 244.619 612.053 243.485C623.741 244.456 635.419 245.545 647.155 245.446C670.025 245.35 686.257 243.675 706.254 241.931C702.749 255.326 698.62 268.569 694.662 281.837C690.572 294.948 685.174 307.6 680.442 320.485C674.851 334.678 671.76 343.366 663.543 357.144C660.889 361.084 658.938 362.071 652.909 362.495C630.476 364.772 614.475 360.452 590.939 360.763C581.966 360.594 574.796 358.142 563.101 356.775C551.017 355.521 540.227 355.337 533.718 352.239C533.642 352.155 533.568 352.075 533.508 352.01C533.413 351.862 533.328 351.71 533.243 351.557C533.15 351.264 533.031 350.873 532.918 350.43C531.027 342.284 529.119 334.141 526.837 326.094C518.022 294.916 509.373 263.694 499.294 232.895C505.458 268.376 510.418 304.118 519.006 339.124C519.947 343.229 520.758 347.362 521.545 351.499C521.906 354.57 523.145 357.472 525.112 359.857C528.271 363.5 533.236 364.657 537.769 365.608C545.032 367.113 552.451 367.586 559.841 368.019C570.162 368.689 571.059 369.562 582.67 371.32C589.976 372.536 597.385 372.203 604.754 372.517C618.764 373.632 626.53 374.225 638.596 373.98C646.468 373.825 654.528 374.001 662.212 372.088C669.185 369.955 673.043 363.118 676.198 357.025C679.559 350.368 682.58 343.544 685.25 336.581C691.13 320.933 697.105 305.321 703.177 289.747C708.181 276.135 712.288 262.223 716.785 248.441C717.382 246.47 718.084 244.533 718.755 242.585C718.936 242.251 719.067 241.893 719.145 241.521C719.964 238.673 720.61 235.505 719.041 232.799ZM662.143 135.51C665.194 129.871 667.008 126.532 668.655 124.324C668.926 129.13 667.375 134.111 665.091 143.755C658.255 167.884 642.243 192.018 627.952 217.569C626.103 220.656 624.073 223.621 621.978 226.542C626.171 217.607 629.863 208.446 633.037 199.1C633.458 197.751 633.822 196.387 634.209 195.028C637.643 188.014 641.119 181.02 644.562 174.011C650.632 161.274 655.549 148 662.143 135.51V135.51ZM602.693 89.8625C603.982 84.8668 604.489 84.6175 605.048 83.6943C607.632 80.1863 606.463 81.1877 609.539 78.3138C610.936 79.1866 611.876 80.0078 614.687 83.401C614.765 83.5187 614.837 83.6266 614.948 83.7949C619.669 91.2519 620.212 94.1777 623.691 105.228C626.57 116.552 626.035 135.929 624.264 153.568C622.936 166.313 622.194 173.95 618.052 189.769C617.496 191.613 616.968 193.315 616.453 194.941C614.456 199.148 612.478 203.363 610.576 207.613C609.809 209.34 609.058 211.073 608.299 212.802C606.461 170.181 594.984 124.063 602.693 89.8625ZM565.492 193.155C561.71 187.353 558.464 181.223 554.977 175.243C551.82 169.154 552.294 171.305 550.843 164.783C548.855 157.695 550.74 146.387 551.852 143.956C551.908 143.829 551.941 143.749 551.985 143.648C552.226 143.149 552.498 142.666 552.8 142.202C552.902 142.095 552.99 142.003 553.07 141.921C553.185 141.892 553.302 141.876 553.417 141.85C553.618 141.845 553.799 141.843 553.961 141.846C555.02 142.047 556.06 142.335 557.072 142.705C557.149 142.735 557.182 142.747 557.247 142.772C557.575 142.919 557.907 143.056 558.228 143.219C560.632 144.66 560.422 144.251 564.375 148.569L564.393 148.593C566.808 152.078 568.897 155.782 570.962 159.483C573.501 164.18 575.794 169.007 577.924 173.901C578.221 174.636 578.526 175.367 578.804 176.109C584.116 190.327 588.865 211.383 590.491 222.836C588.149 219.61 585.712 216.457 583.07 213.462C575.81 205.596 569.782 200.148 565.492 193.155H565.492Z" fill="#3F3D56"/>
<path d="M557.668 94.0085C547.055 94.2716 547.083 109.82 557.668 110.111C568.281 109.848 568.254 94.3004 557.668 94.0085Z" fill="#3F3D56"/>
<path d="M656.298 83.9438C645.685 84.2069 645.713 99.7549 656.298 100.047C666.911 99.7838 666.884 84.2357 656.298 83.9438Z" fill="#3F3D56"/>
<path d="M678.44 198.677C667.827 198.941 667.854 214.489 678.44 214.78C689.053 214.517 689.025 198.969 678.44 198.677Z" fill="#3F3D56"/>
<path d="M532.73 265.368L542.124 342.551C575.85 344.59 609.576 346.63 641.893 354.287C653.658 324.708 665.424 295.129 680.598 268.01C657.491 290.551 634.384 313.091 608.799 332.318C590.98 329.87 573.161 327.422 556.544 324.967C549.001 306.332 541.459 287.698 532.73 265.368Z" fill="#BA723E"/>
<path d="M116.543 126.32C115.417 118.125 113.558 109.851 109.262 102.783C104.965 95.7154 97.8788 89.9604 89.6666 88.9737C79.0226 87.6949 68.5376 94.9262 63.9183 104.6C59.2986 114.274 59.7888 125.762 62.9713 135.999C66.1542 146.236 71.817 155.494 77.4239 164.631L104.808 209.254C116.286 183.218 120.347 154.518 116.543 126.32V126.32Z" fill="#BA723E"/>
<path d="M101.229 216.787L111.92 220.837C109.55 216.976 107.18 213.114 104.81 209.252C103.686 211.796 102.492 214.307 101.229 216.787Z" fill="#BA723E"/>
<path d="M101.848 291.872C101.844 291.823 101.84 291.771 101.835 291.728C101.817 291.599 101.797 291.471 101.778 291.342C101.759 291.267 101.77 291.417 101.848 291.872Z" fill="#3F3D56"/>
<path d="M202.756 203.651C201.128 192.539 198.517 180.586 190.599 172.161C187.163 168.448 181.607 166.52 176.732 168.281C171.798 170.286 168.842 175.006 167.141 179.843C160.361 197.535 155.777 216.005 148.118 233.373C143.277 245.797 137.674 257.911 131.342 269.646C126.591 278.346 121.158 286.644 115.888 295.033C115.226 295.474 114.594 295.961 113.999 296.489C115.069 275.182 114.756 253.827 113.062 232.56C113.918 232.235 114.675 231.692 115.258 230.986C118.539 227.358 120.657 222.844 122.666 218.427C125.051 212.741 127.221 206.967 129.322 201.171C135.934 183.255 140.258 164.575 142.191 145.576C143.44 134.818 143.143 123.851 140.303 113.358C137.933 103.61 133.149 94.1378 124.808 88.2066C120.181 84.7902 114.493 83.3713 108.951 82.2151C103.592 81.0873 98.2257 79.9744 92.8095 79.1578C88.2841 78.519 83.6646 78.1219 79.1332 78.9208C74.333 79.8127 69.8094 81.8199 65.9272 84.7805C59.4294 90.252 54.5221 97.3696 51.7189 105.388C50.0344 110.009 48.9119 114.816 48.3757 119.706C47.6101 124.842 47.4234 130.047 47.819 135.225C48.8079 145.497 52.9644 155.144 57.1725 164.46C62.3886 175.595 68.9834 186.031 76.8018 195.522C86.3211 206.619 97.0946 216.558 107.682 226.625C107.485 228.076 107.682 229.554 108.252 230.903C108.571 231.529 109.066 232.048 109.678 232.394C110.289 232.741 110.989 232.9 111.69 232.851C110.24 248.745 108.86 264.65 107.782 280.575C105.692 271.441 102.406 262.623 98.008 254.349C91.4213 241.449 81.6111 230.467 70.4207 221.369C65.1616 217.255 60.0571 212.806 54.1238 209.675C47.366 206.391 40.0722 204.351 32.5915 203.652C26.4125 202.833 19.8553 203.498 14.4684 206.827C5.99844 211.461 -1.246 219.59 0.180358 229.859C0.872451 238.124 5.0573 245.406 10.2043 251.714C16.158 259.608 23.456 266.352 31.0823 272.598C43.3065 282.656 56.6186 291.312 70.1552 299.483C74.8019 302.167 79.722 304.346 84.8318 305.984C91.8228 307.933 99.0317 308.945 106.183 310.134C105.447 326.549 105.913 342.998 105.121 359.404C103.047 359.219 100.962 359.171 98.8814 359.26C96.6841 359.439 94.5177 359.891 92.4326 360.607C90.7153 361.057 88.946 361.278 87.1707 361.265C84.2854 361.352 81.4689 362.167 78.9824 363.633C77.6015 364.163 76.1222 364.389 74.646 364.294C70.7215 363.207 64.7529 361.449 60.2685 363.597C55.9962 366.083 52.2377 369.405 48.2193 372.279C52.5373 370.206 56.6724 367.694 61.0944 365.861C65.2166 364.894 68.8895 366.716 71.4907 367.933C74.3124 369.313 77.5472 369.592 80.5636 368.715C83.4506 367.643 83.873 367.411 85.5948 367.372C88.1528 367.324 90.7203 367.571 93.2576 367.097C93.8868 367.025 96.6768 366.449 97.3401 366.282C99.7923 366.134 102.253 366.252 104.68 366.636C104.657 366.951 104.644 367.265 104.619 367.579C104.697 367.275 104.761 366.968 104.837 366.663C105.873 366.84 107.073 367.058 109.353 367.276C112.31 367.723 115.246 367.039 118.201 366.971C122.249 366.979 123.324 367.467 128.587 368.438C136.81 369.927 144.916 372.057 153.193 373.229C159.965 374.16 166.81 374.067 173.629 373.987C174.087 373.98 174.545 373.971 175.004 373.963C174.875 373.936 174.747 373.908 174.619 373.88C167.276 372.282 159.861 370.949 152.686 368.676C145.118 366.23 137.636 363.51 129.91 361.585C126.146 360.572 122.334 359.515 118.414 359.402C115.793 359.322 113.2 359.878 110.58 359.782C109.204 359.725 107.828 359.614 106.452 359.506C108.987 347.164 110.321 334.604 111.749 322.088C112.205 318.391 112.604 314.69 112.945 310.985C116.124 314.292 121.786 315.687 126.952 315.525C133.032 315.686 138.758 313.601 144.124 310.923C151.601 307.145 158.591 302.473 164.942 297.011C174.925 288.944 183.311 279.082 189.669 267.933C192.616 262.818 195.216 257.512 197.453 252.049C199.212 247.025 200.569 241.868 201.512 236.629C203.764 225.782 204.184 214.636 202.756 203.651ZM106.244 308.582C106.223 308.998 106.215 309.413 106.196 309.829C99.4336 307.386 91.6097 304.82 86.4254 302.515C81.6765 300.223 77.1541 297.488 72.9183 294.348C57.2771 282.19 43.1409 272.857 29.7159 260.993C24.8277 256.708 20.347 251.979 16.3313 246.866C14.0817 243.839 11.7036 240.863 10.108 237.424C8.93362 234.783 8.13329 231.991 7.73018 229.129C7.7024 228.577 7.60111 226.92 7.65617 225.877C7.67839 225.771 7.72435 225.518 7.79129 225.128C8.60159 218.873 15.9504 213.826 21.5037 211.53C25.6138 210.077 29.7866 210.569 35.9449 211.294C40.6347 212.18 45.2123 213.582 49.5944 215.474C56.5092 219.108 59.1427 221.781 64.3917 225.871C74.7409 234.417 82.025 242.105 88.1298 252.156C94.8817 263.607 97.8718 271.763 100.737 285.078C101.157 287.153 101.483 289.245 101.777 291.342C101.803 291.469 101.822 291.598 101.834 291.727C101.853 291.871 101.878 292.014 101.897 292.158C101.876 292.043 101.862 291.961 101.847 291.872C101.86 292.018 101.872 292.179 101.876 292.361C101.812 294.646 102.039 293.609 101.571 295.1C101.386 295.095 101.202 295.071 101.017 295.054C100.893 295.025 100.743 294.99 100.548 294.941C93.1136 292.423 80.4585 277.113 70.1944 267.766C56.5931 255.193 41.5521 244.244 28.459 231.112C37.1891 245.113 52.8654 260.471 65.3354 273.696C72.9519 281.003 94.9426 310.206 106.549 301.888C106.443 304.119 106.334 306.35 106.244 308.582ZM99.5213 119.608C97.956 116.204 96.045 112.969 93.8184 109.955C94.2488 110.814 94.6777 111.677 95.056 112.561C98.2194 120.157 100.168 128.687 101.83 136.899C106.013 156.691 108.498 172.159 109.011 191.718C109.189 200.359 108.859 209.006 108.37 217.633C108.198 220.283 107.993 222.931 107.755 225.576C107.75 225.646 107.745 225.717 107.74 225.788C99.1005 214.349 90.8259 204.316 82.8793 193.283C74.4348 181.29 67.1943 168.493 61.2629 155.079C60.0995 152.214 56.5893 143.766 55.5113 137.616C55.435 137.198 55.2986 136.332 55.2261 135.882C54.7292 131.503 54.7172 127.082 55.1905 122.699C55.5511 117.483 56.609 112.339 58.336 107.403C61.7883 97.4438 69.3624 87.5018 79.8392 85.5699C85.7965 84.4268 93.8095 85.8907 102.271 87.6356C106.866 88.4322 111.394 89.5729 115.818 91.0481C116.855 91.4433 117.854 91.932 118.803 92.5083C119.834 93.0749 120.804 93.7461 121.698 94.5113C128.735 100.95 130.652 105.595 133.344 115.18C135.427 123.518 135.914 128.352 135.57 137.774C134.414 158.925 129.499 180.002 121.474 201.808C119.474 207.242 117.415 212.783 115.317 217.447C116.377 202.443 116.683 187.343 114.915 172.386C112.277 154.16 107.095 136.394 99.5213 119.608ZM193.283 236.012C191.41 244.194 190.284 248.516 187.234 254.487C185.191 258.804 180.269 267.13 179.694 267.945C178.47 269.839 177.178 271.683 175.835 273.494C164.891 287.562 148.617 300.048 136.526 305.094C131.795 307.167 126.558 307.796 121.472 306.902C119.491 306.265 120.479 306.839 118.373 305.456C118.269 305.364 118.178 305.281 118.102 305.207C118.089 304.771 118.098 304.335 118.129 303.9C118.169 303.636 118.225 303.375 118.296 303.117L118.299 303.11C118.357 303.005 118.427 302.907 118.493 302.805C120.132 300.983 119.708 301.529 122.775 299.851C136.697 292.863 147.803 281.585 157.602 269.679C165.91 259.897 172.991 248.971 177.367 236.855C179.607 229.718 181.406 222.451 182.752 215.093C183.996 208.047 184.675 200.912 184.784 193.758C184.71 194.119 184.634 194.481 184.558 194.843C183.078 202.117 181.16 209.295 178.814 216.338C176.525 222.904 173.701 230.925 171.735 235.219C167.648 243.282 162.758 250.912 157.14 257.993C152.482 264.005 140.382 278.193 131.367 285.245C128.106 287.881 124.607 290.208 120.915 292.195C119.363 293.012 117.713 293.845 116.194 294.831C124.907 285.104 133.394 275.123 140.362 264.046C148.93 250.707 155.499 236.207 160.932 221.339C164.851 210.619 167.706 199.556 171.33 188.739C173.208 183.491 173.644 180.983 175.841 177.338L175.911 177.251C176.53 176.566 177.205 175.935 177.93 175.363C181.808 172.762 185.859 175.618 190.136 184.612C191.097 186.402 193.58 194.53 194.408 199.64C194.464 200.166 194.796 202.21 194.946 203.072C196.324 214.064 195.761 225.214 193.283 236.012V236.012Z" fill="#3F3D56"/>
</g>
<defs>
<clipPath id="clip0_515_119">
<rect width="720" height="374.035" fill="white"/>
</clipPath>
</defs>
</svg>
