<svg width="128" height="128" viewBox="0 0 128 128" fill="none" xmlns="http://www.w3.org/2000/svg">
<path d="M58.6666 10.6667C69.0269 10.6674 79.0332 14.4368 86.8191 21.2717C94.605 28.1067 99.6387 37.5405 100.981 47.8134L112.981 66.6881C113.771 67.9307 113.611 69.7814 111.781 70.5707L101.333 75.0401V90.6667C101.333 93.4957 100.209 96.2088 98.2091 98.2092C96.2087 100.21 93.4956 101.333 90.6666 101.333H80.0053L79.9999 117.333H31.9999V97.6321C31.9999 91.3387 29.6746 85.3814 25.3653 80.0054C20.34 73.7309 17.1895 66.1643 16.2769 58.1774C15.3642 50.1905 16.7265 42.1082 20.2067 34.8618C23.687 27.6153 29.1437 21.4994 35.9481 17.2188C42.7525 12.9382 50.6277 10.6669 58.6666 10.6667V10.6667ZM55.8399 41.4027C54.9792 40.5111 53.9494 39.7999 52.8108 39.3105C51.6722 38.8211 50.4475 38.5634 49.2083 38.5524C47.969 38.5414 46.7399 38.7773 45.5928 39.2463C44.4457 39.7154 43.4035 40.4082 42.527 41.2844C41.6504 42.1605 40.9572 43.2025 40.4877 44.3494C40.0182 45.4964 39.7818 46.7253 39.7923 47.9646C39.8028 49.2039 40.06 50.4286 40.549 51.5674C41.0379 52.7062 41.7487 53.7363 42.6399 54.5974L58.6666 70.6294L74.6933 54.5974C75.5845 53.7363 76.2954 52.7062 76.7843 51.5674C77.2732 50.4286 77.5304 49.2039 77.5409 47.9646C77.5515 46.7253 77.3151 45.4964 76.8455 44.3494C76.376 43.2025 75.6828 42.1605 74.8063 41.2844C73.9298 40.4082 72.8875 39.7154 71.7404 39.2463C70.5933 38.7773 69.3642 38.5414 68.125 38.5524C66.8857 38.5634 65.661 38.8211 64.5224 39.3105C63.3838 39.7999 62.3541 40.5111 61.4933 41.4027L58.6666 44.2294L55.8399 41.4027V41.4027Z" fill="#77381F"/>
</svg>
