<svg width="128" height="128" viewBox="0 0 128 128" fill="none" xmlns="http://www.w3.org/2000/svg">
<path d="M64 106.667C54.0986 106.667 44.6027 102.734 37.6013 95.7321C30.6 88.7308 26.6667 79.2349 26.6667 69.3335C26.6667 59.4321 30.6 49.9362 37.6013 42.9348C44.6027 35.9335 54.0986 32.0002 64 32.0002C73.9014 32.0002 83.3973 35.9335 90.3987 42.9348C97.4 49.9362 101.333 59.4321 101.333 69.3335C101.333 79.2349 97.4 88.7308 90.3987 95.7321C83.3973 102.734 73.9014 106.667 64 106.667ZM101.493 39.4135L109.067 31.8402C106.667 29.1202 104.267 26.6668 101.547 24.3202L93.9733 32.0002C85.7067 25.2802 75.3067 21.3335 64 21.3335C51.2696 21.3335 39.0606 26.3906 30.0589 35.3924C21.0571 44.3941 16 56.6031 16 69.3335C16 82.0639 21.0571 94.2729 30.0589 103.275C39.0606 112.276 51.2696 117.333 64 117.333C90.6667 117.333 112 95.8402 112 69.3335C112 58.0268 108.053 47.6268 101.493 39.4135V39.4135ZM58.6667 74.6668H69.3333V42.6668H58.6667V74.6668ZM80 5.3335H48V16.0002H80V5.3335Z" fill="#77381F"/>
</svg>
