<svg width="128" height="128" viewBox="0 0 128 128" fill="none" xmlns="http://www.w3.org/2000/svg">
<path d="M32 16C40.88 16.0012 49.469 19.1667 56.2259 24.9286C62.9828 30.6905 67.4654 38.6716 68.8693 47.44C72.0827 44.2303 75.8974 41.6855 80.0952 39.9513C84.293 38.2171 88.7914 37.3275 93.3333 37.3333H117.333V50.6667C117.333 55.2192 116.437 59.7271 114.694 63.933C112.952 68.139 110.399 71.9606 107.18 75.1797C103.961 78.3988 100.139 80.9523 95.933 82.6945C91.727 84.4367 87.2191 85.3333 82.6666 85.3333H69.3333V112H58.6666V69.3333H48C38.0985 69.3333 28.6027 65.4 21.6013 58.3987C14.5999 51.3973 10.6666 41.9014 10.6666 32V16H32ZM106.667 48H93.3333C86.9681 48 80.8636 50.5286 76.3627 55.0294C71.8619 59.5303 69.3333 65.6348 69.3333 72V74.6667H82.6666C85.8183 74.6667 88.9392 74.0459 91.851 72.8398C94.7628 71.6337 97.4086 69.8658 99.6372 67.6372C101.866 65.4086 103.634 62.7629 104.84 59.8511C106.046 56.9393 106.667 53.8184 106.667 50.6667V48ZM32 26.6667H21.3333V32C21.3333 39.0724 24.1428 45.8552 29.1438 50.8562C34.1447 55.8572 40.9275 58.6667 48 58.6667H58.6666V53.3333C58.6666 46.2609 55.8571 39.4781 50.8561 34.4772C45.8552 29.4762 39.0724 26.6667 32 26.6667V26.6667Z" fill="#77381F"/>
</svg>
