<svg width="128" height="128" viewBox="0 0 128 128" fill="none" xmlns="http://www.w3.org/2000/svg">
<path d="M117.333 37.3333V50.6667C117.333 55.2192 116.437 59.7271 114.694 63.933C112.952 68.139 110.399 71.9606 107.18 75.1797C103.961 78.3988 100.139 80.9523 95.933 82.6945C91.727 84.4367 87.2191 85.3333 82.6666 85.3333H69.3333V112H58.6666V74.6667L58.768 69.3333C59.4397 60.6264 63.3728 52.4938 69.7811 46.5612C76.1893 40.6285 84.6005 37.333 93.3333 37.3333H117.333ZM32 16C39.8365 16.0006 47.4745 18.4658 53.8328 23.0466C60.1911 27.6275 64.9476 34.0921 67.4293 41.5253C63.3481 44.9838 60.0046 49.228 57.5976 54.0053C55.1906 58.7826 53.7694 63.9954 53.4186 69.3333H48C38.0985 69.3333 28.6027 65.4 21.6013 58.3987C14.5999 51.3973 10.6666 41.9014 10.6666 32V16H32Z" fill="#77381F"/>
</svg>
