<svg width="128" height="128" viewBox="0 0 128 128" fill="none" xmlns="http://www.w3.org/2000/svg">
<path d="M64 64.0001C56.9276 64.0001 50.1448 61.1906 45.1439 56.1896C40.1429 51.1886 37.3334 44.4059 37.3334 37.3334C37.3334 30.261 40.1429 23.4782 45.1439 18.4772C50.1448 13.4763 56.9276 10.6667 64 10.6667C71.0725 10.6667 77.8552 13.4763 82.8562 18.4772C87.8572 23.4782 90.6667 30.261 90.6667 37.3334C90.6667 44.4059 87.8572 51.1886 82.8562 56.1896C77.8552 61.1906 71.0725 64.0001 64 64.0001V64.0001ZM96 90.6667V117.333H85.3334V90.6667C85.3334 66.9281 99.4347 46.4801 119.717 37.2481L124.133 46.9547C115.743 50.7712 108.628 56.9225 103.639 64.6738C98.6501 72.4251 95.9982 81.4488 96 90.6667V90.6667ZM42.6667 90.6667V117.333H32V90.6667C32.0008 81.4497 29.3484 72.4272 24.3597 64.6769C19.3709 56.9266 12.2567 50.7761 3.8667 46.9601L8.2827 37.2481C18.537 41.912 27.2321 49.4292 33.3292 58.9017C39.4264 68.3742 42.6679 79.4016 42.6667 90.6667Z" fill="#77381F"/>
</svg>
