<svg width="128" height="128" viewBox="0 0 128 128" fill="none" xmlns="http://www.w3.org/2000/svg">
<path d="M96 90.6667V117.333H85.3334V90.6667C85.3334 66.9281 99.4347 46.4801 119.717 37.2481L124.133 46.9547C115.743 50.7712 108.628 56.9225 103.639 64.6738C98.6501 72.4251 95.9982 81.4488 96 90.6667V90.6667ZM42.6667 90.6667V117.333H32V90.6667C32.0008 81.4497 29.3484 72.4272 24.3597 64.6769C19.3709 56.9266 12.2567 50.7761 3.8667 46.9601L8.2827 37.2481C18.537 41.912 27.2321 49.4292 33.3292 58.9017C39.4264 68.3742 42.6679 79.4016 42.6667 90.6667ZM64 64.0001C56.9276 64.0001 50.1448 61.1906 45.1439 56.1896C40.1429 51.1886 37.3334 44.4059 37.3334 37.3334C37.3334 30.261 40.1429 23.4782 45.1439 18.4772C50.1448 13.4763 56.9276 10.6667 64 10.6667C71.0725 10.6667 77.8552 13.4763 82.8562 18.4772C87.8572 23.4782 90.6667 30.261 90.6667 37.3334C90.6667 44.4059 87.8572 51.1886 82.8562 56.1896C77.8552 61.1906 71.0725 64.0001 64 64.0001V64.0001ZM64 53.3334C66.1012 53.3334 68.1818 52.9196 70.123 52.1155C72.0642 51.3114 73.828 50.1329 75.3137 48.6471C76.7995 47.1614 77.978 45.3976 78.7821 43.4563C79.5862 41.5151 80 39.4346 80 37.3334C80 35.2323 79.5862 33.1517 78.7821 31.2105C77.978 29.2693 76.7995 27.5054 75.3137 26.0197C73.828 24.534 72.0642 23.3554 70.123 22.5513C68.1818 21.7473 66.1012 21.3334 64 21.3334C59.7566 21.3334 55.6869 23.0191 52.6863 26.0197C49.6857 29.0203 48 33.0899 48 37.3334C48 41.5769 49.6857 45.6465 52.6863 48.6471C55.6869 51.6477 59.7566 53.3334 64 53.3334V53.3334Z" fill="#77381F"/>
</svg>
